<svg xmlns="http://www.w3.org/2000/svg" width="23" height="23" viewBox="0 0 23 23"><g transform="translate(0)"><path d="M11.5,23a2.518,2.518,0,0,1-2.516-2.516v-.732a8.542,8.542,0,0,1-1.54-.638l-.518.518a2.516,2.516,0,1,1-3.558-3.558l.518-.518a8.547,8.547,0,0,1-.638-1.54H2.516a2.516,2.516,0,0,1,0-5.031h.732a8.542,8.542,0,0,1,.638-1.54l-.518-.518A2.516,2.516,0,1,1,6.926,3.368l.518.518a8.546,8.546,0,0,1,1.54-.638V2.516A2.516,2.516,0,0,1,11.5,0a2.551,2.551,0,0,1,.5.05,2.523,2.523,0,0,1,2.015,2.466v.732a8.542,8.542,0,0,1,1.54.638l.518-.518a2.516,2.516,0,1,1,3.558,3.558l-.518.518a8.547,8.547,0,0,1,.638,1.54h.732a2.516,2.516,0,0,1,0,5.031h-.732a8.542,8.542,0,0,1-.638,1.54l.518.518a2.516,2.516,0,0,1-3.558,3.558l-.518-.518a8.546,8.546,0,0,1-1.54.638v.732A2.517,2.517,0,0,1,12,22.95h0a2.551,2.551,0,0,1-.5.05Zm.359-.755h0ZM7.326,17.5a.717.717,0,0,1,.38.109,7.124,7.124,0,0,0,2.16.9.719.719,0,0,1,.556.7v1.283A1.079,1.079,0,0,0,11.5,21.563a1.109,1.109,0,0,0,.217-.022,1.08,1.08,0,0,0,.862-1.057V19.2a.719.719,0,0,1,.556-.7,7.124,7.124,0,0,0,2.16-.9.719.719,0,0,1,.888.1l.908.908a1.078,1.078,0,0,0,1.525-1.525l-.908-.908a.719.719,0,0,1-.1-.888,7.124,7.124,0,0,0,.9-2.16.719.719,0,0,1,.7-.556h1.283a1.078,1.078,0,0,0,0-2.156H19.2a.719.719,0,0,1-.7-.556,7.123,7.123,0,0,0-.9-2.16.719.719,0,0,1,.1-.888l.908-.908a1.078,1.078,0,0,0-1.525-1.525l-.908.908a.719.719,0,0,1-.888.1,7.124,7.124,0,0,0-2.16-.9.719.719,0,0,1-.556-.7V2.516a1.081,1.081,0,0,0-.862-1.057,1.107,1.107,0,0,0-.216-.022,1.079,1.079,0,0,0-1.078,1.078V3.8a.719.719,0,0,1-.556.7,7.124,7.124,0,0,0-2.16.9.719.719,0,0,1-.888-.1l-.908-.908A1.078,1.078,0,0,0,4.385,5.909l.908.908a.719.719,0,0,1,.1.888,7.124,7.124,0,0,0-.9,2.16.719.719,0,0,1-.7.556H2.516a1.078,1.078,0,0,0,0,2.156H3.8a.719.719,0,0,1,.7.556,7.123,7.123,0,0,0,.9,2.16.719.719,0,0,1-.1.888l-.908.908a1.078,1.078,0,0,0,1.525,1.525l.908-.908a.718.718,0,0,1,.508-.21Z" transform="translate(0 0)" fill="#555"/><path d="M149.031,154.063a5.031,5.031,0,0,1,0-10.062c.143,0,.285.006.422.018a5.031,5.031,0,0,1,0,10.027C149.316,154.056,149.174,154.063,149.031,154.063Zm0-8.625a3.594,3.594,0,0,0,0,7.188c.1,0,.2,0,.3-.013a3.593,3.593,0,0,0,0-7.162C149.233,145.442,149.133,145.438,149.031,145.438Z" transform="translate(-137.531 -137.531)" fill="#555"/></g></svg>