<svg xmlns="http://www.w3.org/2000/svg" width="22.803" height="22.803" viewBox="0 0 22.803 22.803"><path d="M22.135,16.434h-.8v-1.47a.668.668,0,1,0-1.336,0v1.47H17.77V.668A.668.668,0,0,0,17.1,0H5.7a.668.668,0,0,0-.668.668V16.434H2.806v-1.47a.668.668,0,1,0-1.336,0v1.47h-.8A.668.668,0,0,0,0,17.1v5.033a.668.668,0,0,0,.668.668H22.135a.668.668,0,0,0,.668-.668V17.1A.668.668,0,0,0,22.135,16.434ZM1.336,17.77h3.7v3.7h-3.7Zm8.239,3.7V19.908h3.652v1.559Zm4.988,0V19.24a.668.668,0,0,0-.668-.668H8.907a.668.668,0,0,0-.668.668v2.227H6.369V1.336H16.434v20.13Zm6.9,0h-3.7v-3.7h3.7Z" fill="#555"/><path d="M183.369,65h-5.7a.668.668,0,1,0,0,1.336h5.7a.668.668,0,1,0,0-1.336Z" transform="translate(-169.117 -62.105)" fill="#555"/><path d="M186.381,129h-.713a.668.668,0,0,0,0,1.336h.713a.668.668,0,1,0,0-1.336Z" transform="translate(-176.761 -123.255)" fill="#555"/><path d="M282.381,129h-.713a.668.668,0,0,0,0,1.336h.713a.668.668,0,0,0,0-1.336Z" transform="translate(-268.485 -123.255)" fill="#555"/><path d="M186.381,193h-.713a.668.668,0,0,0,0,1.336h.713a.668.668,0,1,0,0-1.336Z" transform="translate(-176.761 -184.404)" fill="#555"/><path d="M282.381,193h-.713a.668.668,0,0,0,0,1.336h.713a.668.668,0,0,0,0-1.336Z" transform="translate(-268.485 -184.404)" fill="#555"/><path d="M186.381,257h-.713a.668.668,0,0,0,0,1.336h.713a.668.668,0,1,0,0-1.336Z" transform="translate(-176.761 -245.554)" fill="#555"/><path d="M282.381,257h-.713a.668.668,0,0,0,0,1.336h.713a.668.668,0,0,0,0-1.336Z" transform="translate(-268.485 -245.554)" fill="#555"/><path d="M186.381,321h-.713a.668.668,0,0,0,0,1.336h.713a.668.668,0,1,0,0-1.336Z" transform="translate(-176.761 -306.704)" fill="#555"/><path d="M282.381,321h-.713a.668.668,0,0,0,0,1.336h.713a.668.668,0,0,0,0-1.336Z" transform="translate(-268.485 -306.704)" fill="#555"/></svg>