<svg xmlns="http://www.w3.org/2000/svg" width="37.273" height="37.273" viewBox="0 0 37.273 37.273"><g transform="translate(-10.363 -10.363)"><g transform="translate(10.363 10.363)"><path d="M6.426,29.354V16H1.285A1.289,1.289,0,0,0,0,17.285V29.5a3.213,3.213,0,0,0,3.22,3.213H6.426Z" transform="translate(0 -5.718)" fill="#bdc3c7"/><path d="M35.851,1.285V19.279L19.8,26.991H5.01a1.291,1.291,0,0,0,.154-.007.621.621,0,0,0,.154-.006.321.321,0,0,0,.077-.013c.077-.006.154-.019.231-.032a2.215,2.215,0,0,0,.3-.077A3.2,3.2,0,0,0,8.2,23.945c0-.026.006-.058.006-.084a.366.366,0,0,0,.006-.084V1.285A1.289,1.289,0,0,1,9.5,0H34.565A1.289,1.289,0,0,1,35.851,1.285Z" transform="translate(-1.79)" fill="#ecf0f1"/><path d="M28.5,46.565a.643.643,0,0,1-.6-.415,3.956,3.956,0,0,0-3.852-2.817c-3.4,0-5.039-2.669-5.409-4.955a2.02,2.02,0,0,1,.45-1.646A2.051,2.051,0,0,1,20.659,36h3.824a.643.643,0,0,1,0,1.285H20.659a.767.767,0,0,0-.589.274.732.732,0,0,0-.166.605c.106.655.8,3.883,4.142,3.883A5.187,5.187,0,0,1,29.1,45.7a.643.643,0,0,1-.6.869Z" transform="translate(-6.65 -12.865)" fill="#95a5a5"/><path d="M5.481,41.96a.321.321,0,0,1-.077.013.621.621,0,0,1-.154.006C5.334,41.973,5.411,41.973,5.481,41.96Z" transform="translate(-1.876 -14.995)" fill="#ecf0f1"/><path d="M5.481,41.96a.321.321,0,0,1-.077.013.621.621,0,0,1-.154.006C5.334,41.973,5.411,41.973,5.481,41.96Z" transform="translate(-1.876 -14.995)" fill="#ecf0f1"/><g transform="translate(8.997 2.571)"><rect width="8" height="4" rx="1" transform="translate(0.64 1.066)" fill="#95a5a5"/><path d="M23.64,17.285h-9a.643.643,0,1,1,0-1.285h9a.643.643,0,1,1,0,1.285Z" transform="translate(-14 -8.288)" fill="#95a5a5"/><path d="M23.64,21.285h-9a.643.643,0,1,1,0-1.285h9a.643.643,0,1,1,0,1.285Z" transform="translate(-14 -9.718)" fill="#95a5a5"/><path d="M23.64,25.285h-9a.643.643,0,1,1,0-1.285h9a.643.643,0,1,1,0,1.285Z" transform="translate(-14 -11.147)" fill="#95a5a5"/><path d="M42.64,5.285h-9a.643.643,0,0,1,0-1.285h9a.643.643,0,1,1,0,1.285Z" transform="translate(-20.79 -4)" fill="#95a5a5"/><path d="M42.64,9.285h-9a.643.643,0,0,1,0-1.285h9a.643.643,0,1,1,0,1.285Z" transform="translate(-20.79 -5.429)" fill="#95a5a5"/></g><path d="M36.643,22.353A.643.643,0,0,1,36,21.71a2.1,2.1,0,0,1,.851-1.652c.309-.283.434-.41.434-.707s-.129-.422-.434-.707a2.028,2.028,0,0,1,0-3.3c.308-.283.434-.409.434-.7a.643.643,0,1,1,1.285,0,2.1,2.1,0,0,1-.851,1.65c-.305.287-.434.409-.434.707s.129.422.434.707a2.03,2.03,0,0,1,0,3.305c-.306.281-.434.408-.434.7a.643.643,0,0,1-.643.643Z" transform="translate(-12.865 -5.001)" fill="#805333"/><path d="M42.643,22.353A.643.643,0,0,1,42,21.71a2.1,2.1,0,0,1,.851-1.652c.309-.283.434-.41.434-.707s-.129-.422-.434-.707a2.028,2.028,0,0,1,0-3.3c.308-.283.434-.409.434-.7a.643.643,0,1,1,1.285,0,2.1,2.1,0,0,1-.851,1.65c-.305.287-.434.409-.434.707s.129.422.434.707a2.03,2.03,0,0,1,0,3.305c-.306.281-.434.408-.434.7a.643.643,0,0,1-.643.643Z" transform="translate(-15.009 -5.001)" fill="#805333"/><path d="M45.279,34.643v.122A8.258,8.258,0,0,1,43.6,39.694a15.513,15.513,0,0,0-2.641,6.516l-5.315.643-5.315-.643a15.513,15.513,0,0,0-2.641-6.516A8.258,8.258,0,0,1,26,34.765v-.122L35.64,34Z" transform="translate(-9.291 -12.15)" fill="#e64c3c"/><path d="M45.85,53.893V53.9a.9.9,0,0,1-.4.745l-2.127,1.42a.916.916,0,0,1-.5.148H26.609a.9.9,0,0,1-.559-.2l-1.716-1.369a.887.887,0,0,1-.334-.7v-.051A.9.9,0,0,1,24.9,53H44.957a.891.891,0,0,1,.893.893Z" transform="translate(-8.576 -18.94)" fill="#c03a2b"/><path d="M45.279,31.015v2.2H26v-2.2A1.017,1.017,0,0,1,27.015,30H44.264A1.017,1.017,0,0,1,45.279,31.015Z" transform="translate(-9.291 -10.721)" fill="#f9eab0"/></g></g></svg>