<svg xmlns="http://www.w3.org/2000/svg" width="68.254" height="76.038" viewBox="0 0 68.254 76.038"><g transform="translate(0 7.631)"><g transform="translate(0)"><path d="M50.028,42.453H21.653v68.408h7.669v-11.5a1.8,1.8,0,0,1,1.726-1.764H44.468a1.8,1.8,0,0,1,1.764,1.764v11.5h7.861V42.453ZM31.239,91.036H25.986V87.854h5.253Zm0-7.669H25.986V79.993h5.253Zm0-7.669H25.986V72.324h5.253Zm0-7.669H25.986V64.271h5.253Zm0-7.669H25.986V56.449h5.253Zm0-7.669H25.986V48.665h5.253ZM41.324,91.036H34.46V87.854h6.864v3.183Zm0-7.669H34.46V79.993h6.864v3.374Zm0-7.669H34.46V72.324h6.864V75.7Zm0-7.669H34.46V64.271h6.864v3.758Zm0-7.669H34.46V56.449h6.864V60.36Zm0-7.669H34.46V48.665h6.864v4.026Zm3.183,39.035V87.854h5.215l.077,3.873Zm0-7.669V80.683h5.215l.077,3.374Zm0-7.669V73.014h5.215l.077,3.374Zm0-7.669V64.271h5.215l.077,4.448H44.507Zm0-7.669v-4.6h5.215l.077,4.6Zm0-7.669V48.665h5.215l.077,4.716Z" transform="translate(-21.653 -42.453)" fill="#333"/></g></g><g transform="translate(35.891 66.03)"><rect width="14.456" height="9.931" fill="#333"/></g><g transform="translate(53.836 66.03)"><rect width="14.418" height="9.931" fill="#333"/></g><g transform="translate(5.829)"><g transform="translate(0)"><rect width="20.783" height="4.333" fill="#333"/></g></g><g transform="translate(11.35 66.03)"><rect width="9.778" height="9.931" fill="#333"/></g><g transform="translate(35.891 32.785)"><path d="M221.333,182.4v29.717H253.7V182.4Zm4.371,23.429v-3.183h5.138l.038,3.183Zm0-7.669v-3.374h5.138l.038,3.374Zm0-7.669v-3.374h5.138l.038,3.374ZM240.927,206.1H234.1v-3.451h6.825Zm0-7.669H234.1v-3.374h6.825Zm0-7.669H234.1v-3.374h6.825Zm8.436,15.606h-5.215v-3.719H249.4Zm0-7.669h-5.215v-3.374H249.4Zm0-7.669h-5.215v-3.374H249.4Z" transform="translate(-221.333 -182.4)" fill="#333"/></g></svg>