<svg xmlns="http://www.w3.org/2000/svg" width="13.078" height="13.079" viewBox="0 0 13.078 13.079"><g transform="translate(-10.061 -0.261)"><path d="M120.158.848a2.006,2.006,0,0,0-2.837,0L109.366,8.8a.446.446,0,0,0-.114.2l-1.046,3.776a.446.446,0,0,0,.549.549l3.776-1.046a.446.446,0,0,0,.2-.114l7.954-7.954a2.008,2.008,0,0,0,0-2.837Zm-9.82,8.244,6.51-6.51,2.1,2.1-6.51,6.51Zm-.419.842,1.677,1.677-2.32.643ZM120.05,3.578l-.473.473-2.1-2.1.473-.473a1.114,1.114,0,0,1,1.576,0L120.05,2A1.116,1.116,0,0,1,120.05,3.578Zm0,0" transform="translate(-98.129)" fill="#999"/></g></svg>