<svg xmlns="http://www.w3.org/2000/svg" width="18.423" height="14.033" viewBox="0 0 18.423 14.033"><g transform="translate(0 -61)"><g transform="translate(0 61)"><path d="M16.8,61H1.619A1.622,1.622,0,0,0,0,62.619V73.414a1.622,1.622,0,0,0,1.619,1.619H16.8a1.622,1.622,0,0,0,1.619-1.619V62.619A1.622,1.622,0,0,0,16.8,61Zm-.224,1.079L9.246,69.414l-7.4-7.334ZM1.079,73.19V62.838l5.2,5.154Zm.763.763,5.2-5.2,1.823,1.807a.54.54,0,0,0,.762,0l1.777-1.777,5.174,5.174Zm15.5-.763-5.174-5.174,5.174-5.174Z" transform="translate(0 -61)" fill="#4a4a4a"/></g></g></svg>