<svg xmlns="http://www.w3.org/2000/svg" width="16.07" height="11.048" viewBox="0 0 16.07 11.048"><g transform="translate(0 -80)"><g transform="translate(10.652 82.037)"><path d="M339.392,148.466l5.418,3.425V144.9Z" transform="translate(-339.392 -144.896)" fill="#4a4a4a"/></g><g transform="translate(0 82.037)"><path d="M0,144.9v6.994l5.418-3.425Z" transform="translate(0 -144.896)" fill="#4a4a4a"/></g><g transform="translate(0.03 80)"><path d="M16,80H1.934a.992.992,0,0,0-.974.855l8,5.274,8-5.274A.992.992,0,0,0,16,80Z" transform="translate(-0.96 -80)" fill="#4a4a4a"/></g><g transform="translate(0.032 86.212)"><path d="M10.724,277.921l-1.421.936a.5.5,0,0,1-.552,0l-1.421-.937-6.305,3.988a.99.99,0,0,0,.972.848H16.057a.99.99,0,0,0,.972-.848Z" transform="translate(-1.024 -277.92)" fill="#4a4a4a"/></g></g></svg>