<svg xmlns="http://www.w3.org/2000/svg" width="12.193" height="6.43" viewBox="0 0 12.193 6.43"><g transform="translate(0 -121)"><g transform="translate(-0.001 121)"><g transform="translate(0)"><path d="M12.1,123.977C11.993,123.855,9.375,121,6.1,121S.2,123.855.091,123.977a.357.357,0,0,0,0,.477c.109.121,2.727,2.977,6.005,2.977s5.9-2.855,6.005-2.977A.357.357,0,0,0,12.1,123.977ZM6.1,126.715a2.5,2.5,0,1,1,2.5-2.5A2.5,2.5,0,0,1,6.1,126.715Z" transform="translate(0.001 -121)" fill="#555"/></g></g><g transform="translate(4.31 122.429)"><g transform="translate(0 0)"><path d="M183.143,182.072a1.068,1.068,0,0,1,.45-.87,1.763,1.763,0,0,0-.807-.2,1.786,1.786,0,1,0,1.756,2.087A1.065,1.065,0,0,1,183.143,182.072Z" transform="translate(-181 -181)" fill="#555"/></g></g></g></svg>