<svg xmlns="http://www.w3.org/2000/svg" width="30.942" height="12.691" viewBox="0 0 30.942 12.691"><g style="isolation:isolate"><path d="M30.035,154.626h-1.58a6.343,6.343,0,0,0-11.191-.512,2.946,2.946,0,0,0-3.586,0,6.343,6.343,0,0,0-11.191.512H.906a.906.906,0,1,0,0,1.812H1.938a6.345,6.345,0,1,0,12.486-.421c.016-.025.031-.052.045-.079a1.121,1.121,0,0,1,2,0c.014.027.029.053.045.078A6.346,6.346,0,1,0,29,156.439h1.032a.907.907,0,0,0,0-1.813ZM8.219,161.878a4.533,4.533,0,1,1,4.533-4.533A4.538,4.538,0,0,1,8.219,161.878Zm14.5,0a4.533,4.533,0,1,1,4.533-4.533A4.538,4.538,0,0,1,22.723,161.878Z" transform="translate(0 -151)" fill="#fff"/></g></svg>