<svg xmlns="http://www.w3.org/2000/svg" width="20.988" height="20.988" viewBox="0 0 20.988 20.988"><path d="M19.83,0H1.158A1.158,1.158,0,0,0,0,1.159V19.831a1.158,1.158,0,0,0,1.159,1.158H19.83a1.158,1.158,0,0,0,1.159-1.158h0V1.158A1.158,1.158,0,0,0,19.83,0Zm0,0" fill="#4267b2"/><path d="M213.005,95.143V87.026h2.736l.41-3.177h-3.146V81.826c0-.918.255-1.543,1.571-1.543h1.668V77.449a22.418,22.418,0,0,0-2.444-.125,3.816,3.816,0,0,0-4.074,4.187v2.338H207v3.177h2.726v8.117Zm0,0" transform="translate(-198.515 -74.154)" fill="#fff"/></svg>