<svg xmlns="http://www.w3.org/2000/svg" width="18.926" height="18.926" viewBox="0 0 18.926 18.926"><path d="M17.881,0H1.044A1.044,1.044,0,0,0,0,1.045V17.882a1.044,1.044,0,0,0,1.045,1.044H17.881a1.044,1.044,0,0,0,1.045-1.044h0V1.044A1.044,1.044,0,0,0,17.881,0Zm0,0" transform="translate(0 0)" fill="#4a4a4a"/><path d="M212.415,93.392V86.073h2.467l.37-2.865h-2.837V81.384c0-.828.23-1.391,1.416-1.391h1.5V77.437a20.215,20.215,0,0,0-2.2-.113,3.441,3.441,0,0,0-3.674,3.776v2.108H207v2.865h2.458v7.319Zm0,0" transform="translate(-199.348 -74.466)" fill="#fff"/></svg>