<svg xmlns="http://www.w3.org/2000/svg" width="45.068" height="39.477" viewBox="0 0 45.068 39.477"><g transform="translate(-8.036)" opacity="0.7"><path d="M15.842,29.25a2.409,2.409,0,0,0-2.4-2.4h-3a2.408,2.408,0,0,0-2.4,2.4V46.429h7.806Z" transform="translate(0 -6.951)" fill="#fc6e51"/><path d="M27.2,20.361a2.409,2.409,0,0,0-2.4,2.4V44.749h7.8V22.764a2.408,2.408,0,0,0-2.4-2.4Z" transform="translate(-4.34 -5.272)" fill="#ffce54"/><path d="M43.957,26.848a2.41,2.41,0,0,0-2.4,2.4V46.429h7.806V29.25a2.408,2.408,0,0,0-2.4-2.4h-3Z" transform="translate(-8.679 -6.951)" fill="#48cfad"/><path d="M63.72,13.872h-3a2.41,2.41,0,0,0-2.4,2.4V43.069h7.808V16.275A2.41,2.41,0,0,0,63.72,13.872Z" transform="translate(-13.018 -3.592)" fill="#3bafda"/><path d="M14.284,16.829,25.749,7.612l10.538,9.417A1.2,1.2,0,0,0,37.924,17L50.687,4.674l2.565,2.565h.665V0H46.679V.664l2.309,2.31L37.057,14.494,26.591,5.14A1.2,1.2,0,0,0,25.037,5.1L12.778,14.956a1.2,1.2,0,1,0,1.506,1.873Z" transform="translate(-1.111)" fill="#3bafda"/></g></svg>