<svg xmlns="http://www.w3.org/2000/svg" width="52.406" height="49.812" viewBox="0 0 52.406 49.812"><g transform="translate(0 -12.675)"><g transform="translate(0 12.676)"><path d="M51.526,34.806,47.1,30.772V17.4a1.541,1.541,0,0,0-1.541-1.541H34.9A1.541,1.541,0,0,0,33.36,17.4v.857l-5.347-4.872a2.675,2.675,0,0,0-3.62,0L.88,34.806A2.687,2.687,0,0,0,2.69,39.48H6.446V60.946a1.541,1.541,0,0,0,1.541,1.541H20.875a1.541,1.541,0,0,0,1.541-1.541V47.912H29.99V60.946a1.541,1.541,0,0,0,1.541,1.541H44.419a1.541,1.541,0,0,0,1.541-1.541V39.48h3.756a2.687,2.687,0,0,0,1.81-4.674ZM44.419,36.4a1.541,1.541,0,0,0-1.541,1.541V59.4h-9.8V46.371a1.541,1.541,0,0,0-1.541-1.541H20.875a1.541,1.541,0,0,0-1.541,1.541V59.4H9.528V37.938A1.541,1.541,0,0,0,7.987,36.4H3.71L26.2,15.9l7.66,6.98a1.541,1.541,0,0,0,2.579-1.139V18.937h7.575V31.452a1.541,1.541,0,0,0,.5,1.139L48.7,36.4H44.419Z" transform="translate(0 -12.676)" fill="#fff"/></g></g></svg>