<svg xmlns="http://www.w3.org/2000/svg" width="15.855" height="15.07" viewBox="0 0 15.855 15.07"><g transform="translate(0 0)"><path d="M15.588,19.371l-1.339-1.22V14.1a.466.466,0,0,0-.466-.466H10.559a.466.466,0,0,0-.466.466v.259L8.475,12.889a.809.809,0,0,0-1.1,0L.266,19.371a.813.813,0,0,0,.548,1.414H1.95v6.494a.466.466,0,0,0,.466.466h3.9a.466.466,0,0,0,.466-.466V23.336H9.073v3.943a.466.466,0,0,0,.466.466h3.9a.466.466,0,0,0,.466-.466V20.785h1.136a.813.813,0,0,0,.548-1.414Zm-2.15.481a.466.466,0,0,0-.466.466v6.494H10.006V22.869a.466.466,0,0,0-.466-.466H6.315a.466.466,0,0,0-.466.466v3.943H2.883V20.318a.466.466,0,0,0-.466-.466H1.123l6.8-6.2,2.317,2.112a.466.466,0,0,0,.78-.345V14.57h2.292v3.786a.466.466,0,0,0,.152.345l1.264,1.151H13.438Z" transform="translate(0 -12.676)" fill="#555"/></g></svg>