<svg xmlns="http://www.w3.org/2000/svg" width="18.926" height="18.926" viewBox="0 0 18.926 18.926"><path d="M18.869,5.561a6.947,6.947,0,0,0-.44-2.3,4.638,4.638,0,0,0-1.091-1.676A4.639,4.639,0,0,0,15.662.5a6.946,6.946,0,0,0-2.3-.439C12.356.011,12.033,0,9.463,0s-2.892.011-3.9.057a6.948,6.948,0,0,0-2.3.44A4.638,4.638,0,0,0,1.588,1.588,4.639,4.639,0,0,0,.5,3.264a6.947,6.947,0,0,0-.439,2.3C.011,6.571,0,6.893,0,9.463s.011,2.892.057,3.9a6.945,6.945,0,0,0,.44,2.3,4.637,4.637,0,0,0,1.091,1.676,4.637,4.637,0,0,0,1.676,1.091,6.944,6.944,0,0,0,2.3.44c1.009.046,1.332.057,3.9.057s2.892-.011,3.9-.057a6.945,6.945,0,0,0,2.3-.44,4.838,4.838,0,0,0,2.767-2.767,6.945,6.945,0,0,0,.44-2.3c.046-1.009.057-1.332.057-3.9S18.915,6.571,18.869,5.561Zm-1.7,7.725a5.236,5.236,0,0,1-.326,1.757,3.134,3.134,0,0,1-1.8,1.8,5.236,5.236,0,0,1-1.757.326c-1,.046-1.3.055-3.824.055s-2.826-.01-3.824-.055a5.238,5.238,0,0,1-1.757-.326,2.933,2.933,0,0,1-1.088-.708,2.931,2.931,0,0,1-.708-1.088,5.236,5.236,0,0,1-.326-1.757c-.045-1-.055-1.3-.055-3.824s.01-2.826.055-3.824a5.239,5.239,0,0,1,.326-1.757,2.934,2.934,0,0,1,.708-1.088,2.93,2.93,0,0,1,1.088-.708A5.235,5.235,0,0,1,5.639,1.76c1-.045,1.3-.055,3.824-.055h0c2.527,0,2.826.01,3.824.055a5.237,5.237,0,0,1,1.757.326,2.934,2.934,0,0,1,1.088.708,2.93,2.93,0,0,1,.708,1.088,5.231,5.231,0,0,1,.326,1.757c.045,1,.055,1.3.055,3.824S17.212,12.289,17.166,13.287Zm0,0" transform="translate(0 0)" fill="#4a4a4a"/><path d="M129.4,124.539a4.859,4.859,0,1,0,4.859,4.859A4.859,4.859,0,0,0,129.4,124.539Zm0,8.014a3.154,3.154,0,1,1,3.154-3.154A3.154,3.154,0,0,1,129.4,132.553Zm0,0" transform="translate(-119.935 -119.935)" fill="#4a4a4a"/><path d="M364.2,89.761a1.136,1.136,0,1,1-1.136-1.136A1.136,1.136,0,0,1,364.2,89.761Zm0,0" transform="translate(-348.551 -85.349)" fill="#4a4a4a"/></svg>