<svg xmlns="http://www.w3.org/2000/svg" xmlns:xlink="http://www.w3.org/1999/xlink" width="20.988" height="20.988" viewBox="0 0 20.988 20.988"><defs><linearGradient id="a" x1="0.084" y1="0.916" x2="0.916" y2="0.084" gradientUnits="objectBoundingBox"><stop offset="0" stop-color="#ffd600"/><stop offset="0.5" stop-color="#ff0100"/><stop offset="1" stop-color="#d800b9"/></linearGradient><linearGradient id="b" x1="0.146" y1="0.854" x2="0.854" y2="0.146" gradientUnits="objectBoundingBox"><stop offset="0" stop-color="#ff6400"/><stop offset="0.5" stop-color="#ff0100"/><stop offset="1" stop-color="#fd0056"/></linearGradient><linearGradient id="c" x1="0.146" y1="0.854" x2="0.854" y2="0.146" gradientUnits="objectBoundingBox"><stop offset="0" stop-color="#f30072"/><stop offset="1" stop-color="#e50097"/></linearGradient></defs><path d="M20.925,6.168a7.7,7.7,0,0,0-.488-2.547,5.143,5.143,0,0,0-1.21-1.859A5.145,5.145,0,0,0,17.368.551,7.7,7.7,0,0,0,14.821.063C13.7.012,13.344,0,10.494,0S7.287.012,6.168.063A7.705,7.705,0,0,0,3.62.551a5.143,5.143,0,0,0-1.859,1.21A5.144,5.144,0,0,0,.551,3.62,7.7,7.7,0,0,0,.063,6.167C.012,7.287,0,7.644,0,10.494S.012,13.7.063,14.821a7.7,7.7,0,0,0,.488,2.547,5.143,5.143,0,0,0,1.21,1.859,5.142,5.142,0,0,0,1.859,1.21,7.7,7.7,0,0,0,2.547.488c1.119.051,1.477.063,4.327.063s3.208-.012,4.327-.063a7.7,7.7,0,0,0,2.547-.488,5.365,5.365,0,0,0,3.069-3.069,7.7,7.7,0,0,0,.488-2.547c.051-1.119.063-1.477.063-4.327S20.976,7.287,20.925,6.168Zm-1.889,8.567a5.806,5.806,0,0,1-.361,1.949,3.475,3.475,0,0,1-1.992,1.992,5.806,5.806,0,0,1-1.949.361c-1.106.051-1.438.061-4.241.061s-3.134-.011-4.241-.061A5.808,5.808,0,0,1,4.3,18.675,3.252,3.252,0,0,1,3.1,17.89a3.251,3.251,0,0,1-.785-1.207,5.806,5.806,0,0,1-.361-1.949c-.05-1.106-.061-1.438-.061-4.241S1.9,7.36,1.952,6.254a5.81,5.81,0,0,1,.361-1.949A3.254,3.254,0,0,1,3.1,3.1a3.249,3.249,0,0,1,1.207-.785,5.805,5.805,0,0,1,1.949-.361c1.106-.05,1.438-.061,4.241-.061h0c2.8,0,3.134.011,4.241.061a5.807,5.807,0,0,1,1.949.361A3.254,3.254,0,0,1,17.89,3.1a3.249,3.249,0,0,1,.785,1.207,5.8,5.8,0,0,1,.361,1.949c.05,1.106.061,1.438.061,4.241S19.087,13.628,19.036,14.735Zm0,0" fill="url(#a)"/><path d="M129.928,124.539a5.389,5.389,0,1,0,5.389,5.389A5.389,5.389,0,0,0,129.928,124.539Zm0,8.887a3.5,3.5,0,1,1,3.5-3.5A3.5,3.5,0,0,1,129.928,133.426Zm0,0" transform="translate(-119.434 -119.434)" fill="url(#b)"/><path d="M364.448,89.884a1.259,1.259,0,1,1-1.259-1.259A1.259,1.259,0,0,1,364.448,89.884Zm0,0" transform="translate(-347.093 -84.992)" fill="url(#c)"/></svg>