<svg xmlns="http://www.w3.org/2000/svg" width="53.185" height="53.184" viewBox="0 0 53.185 53.184"><path d="M68.3,33.728h-5.85a11.5,11.5,0,0,1-10.168-6.1L51.2,25.594a9.734,9.734,0,0,0-5.058-4.5V19.546a3.546,3.546,0,1,0-7.091,0V21.1a9.734,9.734,0,0,0-5.058,4.5L32.9,27.628a11.5,11.5,0,0,1-10.168,6.1h-5.85a.886.886,0,0,0-.886.886V38.16a.886.886,0,0,0,.886.886h5.826l-2.9,7.978H18.659a.886.886,0,0,0-.886.886,7.091,7.091,0,1,0,14.183,0,.886.886,0,0,0-.886-.886H29.917l-2.9-7.978h2.162a10.634,10.634,0,0,0,7.005-2.633l2.332-2.04a6.188,6.188,0,0,1,.531-.414V57.452L37.612,60.32H35.5a.886.886,0,0,0-.709.355L32.4,63.866H28.41a.886.886,0,0,0-.886.886V68.3a.886.886,0,0,0,.886.886H56.775a.886.886,0,0,0,.886-.886V64.752a.886.886,0,0,0-.886-.886H52.786l-2.393-3.191a.886.886,0,0,0-.709-.355H47.572l-1.434-2.868V33.959a6.19,6.19,0,0,1,.531.414h0L49,36.415a10.633,10.633,0,0,0,7,2.632h2.162l-2.9,7.978H54.116a.886.886,0,0,0-.886.886,7.091,7.091,0,0,0,14.183,0,.886.886,0,0,0-.886-.886H65.373l-2.9-7.978H68.3a.886.886,0,0,0,.886-.886V34.615a.886.886,0,0,0-.886-.886ZM40.819,19.546a1.773,1.773,0,1,1,3.546,0v1.049a9.744,9.744,0,0,0-3.546,0ZM24.864,53.229A5.327,5.327,0,0,1,19.619,48.8H30.109a5.327,5.327,0,0,1-5.245,4.432Zm3.166-6.2H21.7l2.9-7.978h.531ZM55.888,67.412H29.3V65.639H55.888ZM50.57,63.866H34.615l1.33-1.773h13.3Zm-6.111-5.808L45.59,60.32h-6l1.131-2.263a.886.886,0,0,0,.094-.4V33.1a6.156,6.156,0,0,1,3.546,0V57.661a.886.886,0,0,0,.094.4ZM60.32,53.229A5.327,5.327,0,0,1,55.076,48.8H65.565A5.327,5.327,0,0,1,60.32,53.229Zm3.166-6.2H57.154l2.9-7.978h.531Zm3.925-9.75H56.006a8.862,8.862,0,0,1-5.838-2.194l-2.332-2.041h0a7.964,7.964,0,0,0-10.488,0l-2.333,2.041a8.861,8.861,0,0,1-5.837,2.193H17.773V35.5h4.964a13.272,13.272,0,0,0,11.732-7.039l1.084-2.034a7.978,7.978,0,0,1,14.078,0l1.085,2.034A13.272,13.272,0,0,0,62.448,35.5h4.964Z" transform="translate(-16 -16)" fill="#333"/><path d="M234.659,88a2.659,2.659,0,1,0,2.659,2.659A2.659,2.659,0,0,0,234.659,88Zm0,3.546a.886.886,0,1,1,.886-.886A.886.886,0,0,1,234.659,91.546Z" transform="translate(-208.067 -80.022)" fill="#333"/></svg>