<svg xmlns="http://www.w3.org/2000/svg" width="19.509" height="19.002" viewBox="0 0 19.509 19.002"><g transform="translate(0 -0.208)"><g transform="translate(0 5.797)"><rect width="4.363" height="13.412" fill="#4a4a4a"/></g><g transform="translate(6.097 5.797)"><path d="M170.15,160.157c-.046-.015-.09-.03-.139-.044s-.117-.024-.177-.034a3.911,3.911,0,0,0-.783-.079,6.062,6.062,0,0,0-4.688,2.564V160H160v13.412h4.363V166.1s3.3-4.592,4.688-1.219v8.535h4.362v-9.051A4.35,4.35,0,0,0,170.15,160.157Z" transform="translate(-160 -160)" fill="#4a4a4a"/></g><g transform="translate(0.209 0)"><g transform="translate(0)"><circle cx="2" cy="2" r="2" transform="translate(0.281 0.208)" fill="#4a4a4a"/></g></g></g></svg>