<svg xmlns="http://www.w3.org/2000/svg" width="174.778" height="178.844" viewBox="0 0 174.778 178.844"><g transform="translate(-4.066)"><path d="M286.424,357.8l7.642,7.642v23.121H268.3v-7.3h18.075Z" transform="translate(-171.506 -264.582)" fill="#c72127"/><path d="M197.042,357.8l-7.642,7.642v23.121h25.815v-7.3H197.091Z" transform="translate(-131.255 -264.582)" fill="#c72127"/><path d="M253.787,366.029l-8.23-8.229h-7.4v6.711h4.6l4.311,4.311v3.429H226.6v6.711h27.187V366.029Z" transform="translate(-150.232 -264.582)"/><rect width="17.145" height="6.711" transform="translate(91.541 66.786) rotate(-45)" fill="#c72127"/><path d="M234.744,318.8l-7.544,7.544v9.5l12.3-12.3Z" transform="translate(-150.539 -244.686)" fill="#c72127"/><rect width="6.711" height="4.36" transform="translate(72.122 59.454) rotate(-45)" fill="#c72127"/><path d="M244.4,300.9l-4.7,4.752,21.064,21.064v-9.5Z" transform="translate(-156.915 -235.554)" fill="#c72127"/><rect width="7.005" height="6.711" transform="translate(94.085 64.246) rotate(-45)" fill="#c72127"/><path d="M280.047,300.8l-4.947,4.948,5.437,5.486v38.649h6.711V308.05Z" transform="translate(-174.975 -235.503)" fill="#c72127"/><path d="M262.047,230.307l11.364-11.365h0V191.511L266.7,184.8v30.959l-9.6,9.6Z" transform="translate(-165.792 -176.326)" fill="#c72127"/><path d="M225.169,283,209.2,298.969V340.8h6.711V302.153l14.206-14.206Z" transform="translate(-141.356 -226.422)" fill="#c72127"/><path d="M243.047,263.9l-4.947,4.948,10.777,10.777,4.947-4.947Z" transform="translate(-156.099 -216.678)" fill="#c72127"/><path d="M225.852,216.658l-.441-.392V185.7l-6.711,6.711V219.4h0l2.2,2.2Z" transform="translate(-146.202 -176.785)" fill="#c72127"/><path d="M281.352,263.9l-4.752,4.752,7.446,7.446v-9.5Z" transform="translate(-175.74 -216.678)" fill="#c72127"/><path d="M257.8,197.871l-.2.2,4.752,4.752,2.008-2.008v-26.6L257.8,167.5Z" transform="translate(-166.047 -167.5)" fill="#c72127"/><path d="M251.334,204.092l-6.123-6.123V167.5l-6.711,6.711v26.55l3.331,3.331h-.049l4.752,4.752h0l3.135,3.086,4.752-4.7-3.135-3.135Z" transform="translate(-156.303 -167.5)" fill="#c72127"/><path d="M218,256.95v9.5l16.8-16.8L230.05,244.9Z" transform="translate(-145.845 -206.986)" fill="#c72127"/><path d="M89.238,494.847H85.907a5.775,5.775,0,0,0-2.253.441,3.487,3.487,0,0,0-2.351,3.38,3.181,3.181,0,0,0,.588,1.959c.98,1.372,2.743,1.714,4.36,1.714h1.959l-6.368,8.474H79l5-6.662a5.091,5.091,0,0,1-2.351-.735,5.557,5.557,0,0,1-2.645-5,6.288,6.288,0,0,1,1.519-3.772c1.47-1.568,3.919-1.91,5.927-1.91h5v18.075H89.189V494.847Zm39.09,10.042h-7.74l-2.547,5.878h-2.449l8.915-20.868,8.866,20.868h-2.449Zm-3.821-9.209-3.037,7.1H127.5Z" transform="translate(-74.934 -331.972)" fill-rule="evenodd"/><path d="M253.477,508.064H225.8v-7.642c0-4.36,1.029-8.67,4.164-11.854a13.182,13.182,0,0,1,9.944-3.968,12.826,12.826,0,0,1,9.993,4.458A14.744,14.744,0,0,1,253.526,499v9.062ZM228.69,504.88h21.749v-3.968a15.3,15.3,0,0,0-2.6-9.209,9.29,9.29,0,0,0-7.985-3.919,10,10,0,0,0-8.376,3.772,13.778,13.778,0,0,0-2.792,8.866Z" transform="translate(-149.824 -329.269)" fill="#c72127"/><path d="M373.257,504.155l4.947,6.613h-2.841l-6.368-8.474h1.959c1.568,0,3.38-.343,4.36-1.714a3.181,3.181,0,0,0,.588-1.959,3.467,3.467,0,0,0-2.351-3.38,5.957,5.957,0,0,0-2.253-.441h-3.282v15.92h-2.253V492.643h4.947c2.057,0,4.507.343,5.976,1.91a6.617,6.617,0,0,1,1.519,3.821,5.612,5.612,0,0,1-2.645,5,4.33,4.33,0,0,1-2.3.784m-37.621.735h-7.789l-2.5,5.878H322.9l8.915-20.868,8.866,20.868h-2.449Zm-3.87-9.209-2.988,7.1H334.8Z" transform="translate(-199.36 -331.972)" fill-rule="evenodd"/></g></svg>