<svg xmlns="http://www.w3.org/2000/svg" width="70.652" height="72.296" viewBox="0 0 70.652 72.296"><path d="M275.627,357.8l3.089,3.089v9.346H268.3v-2.95h7.307Z" transform="translate(-230.816 -320.117)" fill="#fff"/><path d="M192.489,357.8l-3.089,3.089v9.346h10.435v-2.95h-7.327Z" transform="translate(-167.539 -320.117)" fill="#fff"/><path d="M237.59,361.127l-3.327-3.327h-2.99v2.713h1.861l1.743,1.743v1.386H226.6v2.713h10.99v-5.228Z" transform="translate(-197.373 -320.117)"/><rect width="6.931" height="2.713" transform="translate(35.361 26.998) rotate(-45)" fill="#fff"/><path d="M230.249,318.8l-3.049,3.049v3.841l4.97-4.97Z" transform="translate(-197.854 -288.84)" fill="#fff"/><rect width="2.713" height="1.762" transform="translate(27.511 24.034) rotate(-45)" fill="#fff"/><path d="M241.6,300.9l-1.9,1.921,8.515,8.515v-3.842Z" transform="translate(-207.879 -274.485)" fill="#fff"/><rect width="2.832" height="2.713" transform="translate(36.389 25.971) rotate(-45)" fill="#fff"/><path d="M277.1,300.8l-2,2,2.2,2.218v15.623h2.713V303.731Z" transform="translate(-236.269 -274.404)" fill="#fff"/><path d="M259.1,203.2l4.594-4.594h0V187.513l-2.713-2.713v12.515L257.1,201.2Z" transform="translate(-221.833 -181.374)" fill="#fff"/><path d="M215.655,283l-6.455,6.455v16.911h2.713V290.742L217.655,285Z" transform="translate(-183.418 -260.129)" fill="#fff"/><path d="M240.1,263.9l-2,2,4.356,4.356,2-2Z" transform="translate(-206.596 -244.811)" fill="#fff"/><path d="M221.591,198.215l-.178-.158V185.7l-2.713,2.713v10.911h0l.891.891Z" transform="translate(-191.037 -182.096)" fill="#fff"/><path d="M278.521,263.9l-1.921,1.921,3.01,3.01v-3.841Z" transform="translate(-237.472 -244.811)" fill="#fff"/><path d="M257.679,179.777l-.079.079,1.921,1.921.812-.812V170.213l-2.653-2.713Z" transform="translate(-222.234 -167.5)" fill="#fff"/><path d="M243.688,182.292l-2.475-2.475V167.5l-2.713,2.713v10.732l1.346,1.347h-.02l1.921,1.921h0l1.267,1.247,1.921-1.9-1.267-1.267Z" transform="translate(-206.916 -167.5)" fill="#fff"/><path d="M218,249.771v3.842l6.792-6.792-1.921-1.921Z" transform="translate(-190.476 -229.574)" fill="#fff"/><path d="M83.139,491.9H81.792a2.334,2.334,0,0,0-.911.178,1.409,1.409,0,0,0-.95,1.366,1.286,1.286,0,0,0,.238.792,2.073,2.073,0,0,0,1.762.693h.792l-2.574,3.426H79l2.02-2.693a2.057,2.057,0,0,1-.95-.3A2.247,2.247,0,0,1,79,493.345a2.542,2.542,0,0,1,.614-1.525,3.279,3.279,0,0,1,2.4-.772h2.02v7.307h-.911V491.9Zm15.8,4.059H95.812l-1.03,2.376h-.99l3.6-8.436,3.584,8.436h-.99ZM97.4,492.237l-1.228,2.871H98.6Z" transform="translate(-79 -426.06)" fill-rule="evenodd"/><path d="M236.988,494.085H225.8V491a6.608,6.608,0,0,1,1.683-4.792,5.329,5.329,0,0,1,4.02-1.6,5.185,5.185,0,0,1,4.04,1.8,5.96,5.96,0,0,1,1.465,4.02v3.663Zm-10.02-1.287h8.792v-1.6a6.186,6.186,0,0,0-1.049-3.723,3.755,3.755,0,0,0-3.228-1.584,4.042,4.042,0,0,0-3.386,1.525A5.569,5.569,0,0,0,226.968,491Z" transform="translate(-196.731 -421.809)" fill="#fff"/><path d="M343.256,495.662l2,2.673h-1.148l-2.574-3.426h.792a2.1,2.1,0,0,0,1.762-.693,1.286,1.286,0,0,0,.238-.792,1.4,1.4,0,0,0-.95-1.366,2.408,2.408,0,0,0-.911-.178h-1.327v6.436h-.911v-7.307h2a3.3,3.3,0,0,1,2.416.772,2.675,2.675,0,0,1,.614,1.545,2.268,2.268,0,0,1-1.069,2.02,1.75,1.75,0,0,1-.931.317m-15.208.3H324.9l-1.01,2.376h-.99l3.6-8.436,3.584,8.436h-.99Zm-1.564-3.723-1.208,2.871h2.436Z" transform="translate(-274.604 -426.06)" fill-rule="evenodd"/></svg>