<svg xmlns="http://www.w3.org/2000/svg" width="28.638" height="19.688" viewBox="0 0 28.638 19.688"><g transform="translate(0 -80)"><g transform="translate(18.983 83.63)"><path d="M339.392,151.257l9.654,6.1V144.9Z" transform="translate(-339.392 -144.896)" fill="#4a4a4a"/></g><g transform="translate(0 83.63)"><path d="M0,144.9v12.465l9.654-6.1Z" transform="translate(0 -144.896)" fill="#4a4a4a"/></g><g transform="translate(0.054 80)"><path d="M27.754,80H2.7A1.768,1.768,0,0,0,.96,81.523l14.265,9.4,14.265-9.4A1.768,1.768,0,0,0,27.754,80Z" transform="translate(-0.96 -80)" fill="#4a4a4a"/></g><g transform="translate(0.057 91.07)"><path d="M18.31,277.922l-2.533,1.668a.9.9,0,0,1-.984,0l-2.533-1.67L1.024,285.028a1.765,1.765,0,0,0,1.733,1.511H27.815a1.765,1.765,0,0,0,1.733-1.511Z" transform="translate(-1.024 -277.92)" fill="#4a4a4a"/></g></g></svg>