<svg xmlns="http://www.w3.org/2000/svg" width="15.95" height="15.95" viewBox="0 0 15.95 15.95"><g transform="translate(0)"><g transform="translate(0 0)"><g transform="translate(0 0)"><path d="M15.64,12.683,13.872,11.5,12.3,10.456a.7.7,0,0,0-.935.152l-.973,1.25a.693.693,0,0,1-.884.183A11.325,11.325,0,0,1,6.346,9.6,11.406,11.406,0,0,1,3.909,6.442a.693.693,0,0,1,.183-.884l1.25-.973a.7.7,0,0,0,.152-.935L4.479,2.127,3.268.31A.7.7,0,0,0,2.33.1L.933.937a1.706,1.706,0,0,0-.775,1C-.223,3.333-.3,6.4,4.623,11.328s7.995,4.846,9.387,4.464a1.706,1.706,0,0,0,1-.775l.838-1.4A.7.7,0,0,0,15.64,12.683Z" transform="translate(0 0)" fill="#4a4a4a"/></g></g></g></svg>