<svg xmlns="http://www.w3.org/2000/svg" width="16.541" height="20.366" viewBox="0 0 16.541 20.366"><g transform="translate(0.003 0.001)"><path d="M222.875,154.7a.477.477,0,0,0-.477.477v9.014a.477.477,0,0,0,.954,0V155.18A.477.477,0,0,0,222.875,154.7Zm0,0" transform="translate(-211.794 -147.326)" fill="#e86262"/><path d="M104.875,154.7a.477.477,0,0,0-.477.477v9.014a.477.477,0,1,0,.954,0V155.18A.477.477,0,0,0,104.875,154.7Zm0,0" transform="translate(-99.422 -147.326)" fill="#e86262"/><path d="M1.351,6.062V17.813a2.631,2.631,0,0,0,.7,1.815,2.349,2.349,0,0,0,1.7.737h9.024a2.348,2.348,0,0,0,1.7-.737,2.631,2.631,0,0,0,.7-1.815V6.062a1.822,1.822,0,0,0-.467-3.583H12.274v-.6A1.873,1.873,0,0,0,10.385,0H6.15A1.873,1.873,0,0,0,4.261,1.883v.6H1.819a1.822,1.822,0,0,0-.467,3.583ZM12.779,19.411H3.755a1.511,1.511,0,0,1-1.45-1.6V6.1H14.229V17.813A1.511,1.511,0,0,1,12.779,19.411ZM5.215,1.883A.919.919,0,0,1,6.15.953h4.235a.919.919,0,0,1,.935.93v.6H5.215Zm-3.4,1.55h12.9a.859.859,0,1,1,0,1.717H1.819a.859.859,0,0,1,0-1.717Zm0,0" transform="translate(0 0)" fill="#e86262"/><path d="M163.875,154.7a.477.477,0,0,0-.477.477v9.014a.477.477,0,1,0,.954,0V155.18A.477.477,0,0,0,163.875,154.7Zm0,0" transform="translate(-155.608 -147.326)" fill="#e86262"/></g></svg>