<svg xmlns="http://www.w3.org/2000/svg" width="22.803" height="24.343" viewBox="0 0 22.803 24.343"><g transform="translate(1.358 -81.231)"><g transform="translate(-1.358 81.231)"><g transform="translate(6.254 16.326)"><g transform="translate(0)"><rect width="1.112" height="8.017" fill="#555"/></g></g><g transform="translate(10.877 14.98)"><g transform="translate(0)"><rect width="1.112" height="9.363" fill="#555"/></g></g><g transform="translate(1.69 21.359)"><rect width="1.053" height="2.984" fill="#555"/></g><g transform="translate(15.441 11.586)"><rect width="1.112" height="12.757" fill="#555"/></g><g transform="translate(20.064 8.544)"><rect width="1.053" height="15.8" fill="#555"/></g><path d="M53.545.158A.648.648,0,0,0,53.124,0H49.115a.585.585,0,1,0,0,1.17L51.7,1.164,45.376,7.5l-2.218-2.23a.566.566,0,0,0-.831,0L31.092,16.514a.588.588,0,1,0,.813.848c.006-.006.012-.012.018-.012L42.749,6.525l2.218,2.212a.6.6,0,0,0,.415.164.61.61,0,0,0,.415-.164L52.544,1.99,52.538,4.57a.577.577,0,0,0,.579.579h.006a.577.577,0,0,0,.585-.573V4.57l.006-4A.6.6,0,0,0,53.545.158Z" transform="translate(-30.912)" fill="#555"/></g></g></svg>