<svg xmlns="http://www.w3.org/2000/svg" width="19.047" height="15.246" viewBox="0 0 19.047 15.246"><g transform="translate(0)"><path d="M8.21,169a1.752,1.752,0,0,1-2.273,0L0,163.973v7.195a1.339,1.339,0,0,0,.164.644l3.418-3.5a.286.286,0,1,1,.409.4l-3.452,3.53a1.342,1.342,0,0,0,.809.27H12.794a1.342,1.342,0,0,0,.808-.269l-3.471-3.531a.286.286,0,0,1,.408-.4l3.439,3.5a1.34,1.34,0,0,0,.165-.646v-4.1a5.125,5.125,0,0,1-2.622-.881Zm0,0" transform="translate(0 -157.27)" fill="#fff"/><path d="M8.443,125.979l3.215-2.727a5.314,5.314,0,0,1-.4-.382,5.168,5.168,0,0,1-1.41-3.3h-7.9a1.351,1.351,0,0,0-1.323,1.087L6.91,125.98A1.181,1.181,0,0,0,8.443,125.979Zm0,0" transform="translate(-0.603 -114.687)" fill="#fff"/><path d="M244.614,0a4.619,4.619,0,0,0-3.358,7.791,4.711,4.711,0,0,0,.586.525.279.279,0,0,1,.038.029,4.571,4.571,0,0,0,2.733.893,4.619,4.619,0,1,0,0-9.238Zm2.044,4.9H244.9V6.662a.286.286,0,1,1-.572,0V4.9H242.57a.286.286,0,1,1,0-.572h1.758V2.575a.286.286,0,1,1,.572,0V4.333h1.758a.286.286,0,1,1,0,.572Zm0,0" transform="translate(-230.185)" fill="#fff"/></g></svg>