<svg xmlns="http://www.w3.org/2000/svg" width="19.765" height="12.95" viewBox="0 0 19.765 12.95"><path d="M18.285,88.275H1.48A1.48,1.48,0,0,0,0,89.755v9.989a1.48,1.48,0,0,0,1.48,1.48h16.8a1.48,1.48,0,0,0,1.48-1.48V89.755A1.48,1.48,0,0,0,18.285,88.275Z" transform="translate(0 -88.275)" fill="#ff4b55"/><g transform="translate(2.573 3.067)"><path d="M229.869,225.248l.534.7.834-.279a.051.051,0,0,1,.058.078l-.5.724.523.707a.051.051,0,0,1-.056.079l-.843-.251-.511.716a.051.051,0,0,1-.093-.028l-.021-.879-.839-.264a.051.051,0,0,1,0-.1l.83-.292-.008-.88A.051.051,0,0,1,229.869,225.248Z" transform="translate(-222.657 -223.008)" fill="#f5f5f5"/><path d="M70.906,173.858a2.728,2.728,0,0,1,0-5.456,2.675,2.675,0,0,1,1.507.464.066.066,0,0,0,.086-.1,3.38,3.38,0,0,0-2.563-1.042,3.408,3.408,0,0,0,.118,6.814,3.381,3.381,0,0,0,2.447-1.047.066.066,0,0,0-.086-.1A2.677,2.677,0,0,1,70.906,173.858Z" transform="translate(-66.648 -167.723)" fill="#f5f5f5"/></g></svg>