<svg xmlns="http://www.w3.org/2000/svg" width="24.011" height="19.509" viewBox="0 0 24.011 19.509"><path d="M24.011,50.31a10.263,10.263,0,0,1-2.836.777,4.895,4.895,0,0,0,2.166-2.721,9.837,9.837,0,0,1-3.121,1.192A4.922,4.922,0,0,0,11.7,52.924a5.069,5.069,0,0,0,.114,1.123A13.933,13.933,0,0,1,1.672,48.9a4.924,4.924,0,0,0,1.513,6.579A4.861,4.861,0,0,1,.96,54.87v.054A4.945,4.945,0,0,0,4.9,59.761a4.913,4.913,0,0,1-1.291.162,4.353,4.353,0,0,1-.932-.084,4.969,4.969,0,0,0,4.6,3.429,9.891,9.891,0,0,1-6.1,2.1A9.22,9.22,0,0,1,0,65.3a13.858,13.858,0,0,0,7.552,2.209A13.914,13.914,0,0,0,21.562,53.5c0-.218-.008-.428-.018-.636A9.82,9.82,0,0,0,24.011,50.31Z" transform="translate(0 -48)" fill="#4a4a4a"/></svg>