<svg xmlns="http://www.w3.org/2000/svg" width="23" height="22.898" viewBox="0 0 23 22.898"><g transform="translate(199.569 -21.045)"><g transform="translate(-199.569 21.045)"><g transform="translate(0 0)"><path d="M96.985,11.114a5.034,5.034,0,1,0-5.034-5.034A5.034,5.034,0,0,0,96.985,11.114Zm0-9.047a4.012,4.012,0,1,1-4.012,4.012A4.012,4.012,0,0,1,96.985,2.067Z" transform="translate(-87.453 -1.045)" fill="#555"/><path d="M308.816,305.11a2.658,2.658,0,1,0,2.658,2.658c0-.008,0-.017,0-.025A2.658,2.658,0,0,0,308.816,305.11Zm0,4.268a1.636,1.636,0,1,1,1.636-1.636A1.636,1.636,0,0,1,308.816,309.378Z" transform="translate(-291.182 -290.237)" fill="#555"/><path d="M22.335,224.412a3.86,3.86,0,0,0-.026-.946l.639-.613-.843-1.942-.894.051a8.146,8.146,0,0,0-.664-.664v-.869l-1.993-.767-.588.664a3.3,3.3,0,0,0-.869.026,7.309,7.309,0,0,0-3.782-2.249.588.588,0,0,0-.409.077,5.878,5.878,0,0,1-6.772,0,.537.537,0,0,0-.409-.077A7.513,7.513,0,0,0,0,224.335v.767a.537.537,0,0,0,.511.537H12.5l.664,1.559.894-.077a5.212,5.212,0,0,0,.664.639v.894l1.993.767.588-.664a5.931,5.931,0,0,0,.946-.026l.588.639L20.8,228.5l-.1-.869a4.242,4.242,0,0,0,.664-.69h.869L23,224.948Zm-9.3-3.271-.767,1.993.664.562a5.824,5.824,0,0,0,0,.946H1.022v-.307a6.491,6.491,0,0,1,4.7-6.169A6.95,6.95,0,0,0,9.532,219.3a6.873,6.873,0,0,0,3.809-1.15,6.261,6.261,0,0,1,2.069,1.022l-.92.409.077.869a4.242,4.242,0,0,0-.664.69Zm8.51,4.779h-.716l-.153.256a4.088,4.088,0,0,1-.792.843l-.23.153.051.716-.639.281-.486-.511-.281.051a3.629,3.629,0,0,1-1.176.026h-.281l-.46.511-.639-.256v-.741l-.23-.153a3.681,3.681,0,0,1-.843-.818l-.179-.23-.69.051-.256-.639.511-.486L14,224.718a3.808,3.808,0,0,1-.051-1.2l.051-.256-.537-.46.256-.639h.716l.153-.23a3.118,3.118,0,0,1,.792-.843l.23-.153-.051-.716.639-.281.486.511.281-.051a3.6,3.6,0,0,1,1.176-.026h.281l.434-.511.664.23v.716l.23.153a3.219,3.219,0,0,1,.818.843l.179.2.69-.051.281.639-.511.511.051.256a3.63,3.63,0,0,1,.051,1.176l-.051.281.537.46Z" transform="translate(0 -206.523)" fill="#555"/></g></g></g></svg>