<svg xmlns="http://www.w3.org/2000/svg" width="24.326" height="24.326" viewBox="0 0 24.326 24.326"><g transform="translate(-205.265 -1220.42)"><g transform="translate(205.265 1220.42)"><path d="M12.166,0H12.16A12.156,12.156,0,0,0,2.316,19.292L.8,23.811l4.675-1.495A12.161,12.161,0,1,0,12.166,0Z" fill="#4caf50"/><path d="M121.411,128.7a3.432,3.432,0,0,1-2.387,1.717c-.636.135-1.466.243-4.26-.915-3.574-1.481-5.876-5.113-6.056-5.349a6.947,6.947,0,0,1-1.444-3.669,3.883,3.883,0,0,1,1.244-2.96,1.767,1.767,0,0,1,1.244-.436c.151,0,.286.008.407.014.357.015.537.036.772.6.293.707,1.008,2.452,1.093,2.632a.724.724,0,0,1,.052.658,2.1,2.1,0,0,1-.394.558c-.179.207-.35.365-.529.587-.164.193-.35.4-.143.757a10.8,10.8,0,0,0,1.973,2.452,8.942,8.942,0,0,0,2.852,1.759.769.769,0,0,0,.857-.135,14.712,14.712,0,0,0,.95-1.259.679.679,0,0,1,.873-.265c.328.114,2.066.973,2.423,1.151s.593.265.68.415A3.029,3.029,0,0,1,121.411,128.7Z" transform="translate(-102.168 -111.525)" fill="#f9f9f9"/></g></g></svg>