<svg xmlns="http://www.w3.org/2000/svg" width="18.574" height="23.473" viewBox="0 0 18.574 23.473"><path d="M71.624,18.68a3.647,3.647,0,0,1-1.108-1.509,17.463,17.463,0,0,1-1.155-6.9c0-.009,0-.018,0-.026A6.66,6.66,0,0,0,65.44,4.2V2.615A2.616,2.616,0,0,0,62.829,0h-.216A2.616,2.616,0,0,0,60,2.615V4.2a6.66,6.66,0,0,0-3.921,6.067,17.463,17.463,0,0,1-1.155,6.9,3.647,3.647,0,0,1-1.108,1.509.669.669,0,0,0-.367.76.7.7,0,0,0,.69.537h5.041a3.541,3.541,0,0,0,7.081,0H71.3a.7.7,0,0,0,.69-.537A.669.669,0,0,0,71.624,18.68ZM61.378,2.615a1.238,1.238,0,0,1,1.235-1.237h.216a1.238,1.238,0,0,1,1.235,1.237V3.757a6.66,6.66,0,0,0-2.687,0V2.615ZM62.721,22.1a2.17,2.17,0,0,1-2.165-2.118h4.33A2.17,2.17,0,0,1,62.721,22.1Zm2.769-3.5H55.707a7.208,7.208,0,0,0,.36-.633,17.411,17.411,0,0,0,1.389-7.7,5.264,5.264,0,1,1,10.528,0c0,.008,0,.017,0,.025a17.376,17.376,0,0,0,1.389,7.669,7.215,7.215,0,0,0,.36.633Z" transform="translate(-53.434)" fill="#ffc107"/></svg>