<svg id="Capa_1" enable-background="new 0 0 512.018 512.018" height="512" viewBox="0 0 512.018 512.018" width="512" xmlns="http://www.w3.org/2000/svg"><g><path d="m10 512.009h492c5.523 0 10-4.478 10-10v-66c0-18.604-12.767-34.282-30-38.734v-56.265c0-5.522-4.477-10-10-10s-10 4.478-10 10v56.265c-17.233 4.452-30 20.13-30 38.734v56h-76.848l-28.043-316.048 84.631-21.943 12.961 48.37c1.439 5.369 6.964 8.501 12.27 7.064l25.03-6.768v48.324c0 5.522 4.477 10 10 10s10-4.478 10-10v-53.74l12.379-3.345c3.043-.822 5.52-3.031 6.684-5.96.808-2.032 19.618-50.342 6.056-100.982-13.554-50.56-53.396-83.362-55.086-84.734-2.506-2.034-5.84-2.735-8.952-1.879l-57.96 15.92c-5.302 1.456-8.434 6.92-7.011 12.23l12.922 48.222-361.385 93.701c-17.456 4.684-29.648 20.573-29.648 38.639 0 26.407 25.064 45.406 50.271 38.659l9.729-2.523v60.793h-20c-3.788 0-7.25 2.14-8.944 5.528l-30 60c-.695 1.388-1.056 2.92-1.056 4.472v126c0 5.523 4.477 10 10 10zm140-126v106h-70v-106zm182.772 80.056-73.782-104.056h64.55zm-12.563-141.597-49.276-52.459h44.622zm-10.962 17.541h-59.03l5.088-57.425zm-62.354 37.517 79.758 112.483h-89.725zm205.107 56.483c0-11.028 8.972-20 20-20s20 8.972 20 20v56h-40zm-138.219-184h-55.589l5.276-59.548 44.017-11.413zm129.378-230.922c9.594 8.921 35.03 35.214 44.642 71.069 9.581 35.777.214 71.443-3.745 83.84-57.136 15.459-38.973 10.545-42.63 11.534l-41.425-154.59zm-397.986 207.312c-12.699 3.398-25.173-6.162-25.173-19.319 0-9.033 6.099-16.979 14.75-19.301l361.459-93.721 10.354 38.641c-80.781 20.945-286.537 74.293-361.39 93.7zm34.827 11.632 162.918-42.241c-.038.43-26.062 294.119-26.071 294.219h-46.847v-116c0-5.522-4.477-10-10-10h-20v-50c0-5.522-4.477-10-10-10h-50zm-60 138.339 26.18-52.36h73.82v40h-50c-5.523 0-10 4.478-10 10v116h-40z"/><circle cx="472" cy="296.009" r="10"/></g></svg>