<svg id="Capa_1" enable-background="new 0 0 512 512" height="512" viewBox="0 0 512 512" width="512" xmlns="http://www.w3.org/2000/svg"><g><g><path d="m497.61 434.75c-14.42-11.14-39.41-19.23-69.65-23.94.8-10.19 3.72-18.9 12.23-28.04l.09-.09c2.96-3.16 6.59-6.38 11.04-9.72 11.59-8.71 21.39-20.75 29.33-34.5.41-.53.75-1.12.99-1.75 16.41-29.28 24.58-65.85 23.95-94.58-.02-.97-.03-1.83-.04-2.61-.04-4.26-.07-7.61-2.49-10.6-3.15-3.9-7.8-3.9-11.2-3.9h-36.78l-22.609-24.711c-.173-.212-.359-.413-.553-.605 0 0-23.308-25.514-23.748-25.994-3.66-4.09-6.82-7.62-14.59-7.62h-27.891l-35.025-39.407c-.152-.178-.309-.397-.489-.638-2.081-2.772-6.955-9.266-17.916-9.266h-26.659v-47.102c0-.01.001-.019.001-.029s-.001-.019-.001-.029v-33.329c0-6.78-5.51-12.29-12.29-12.29h-31.86c-6.78 0-12.29 5.51-12.29 12.29v80.489h-52.15v-79.359c0-7.4-6.01-13.42-13.4-13.42h-29.62c-7.4 0-13.42 6.02-13.42 13.42v32.175c0 .018-.003.035-.003.053s.003.035.003.053v47.078h-15.888c-6.823 0-12.375 5.55-12.375 12.371v36.939h-42.787c-6.85 0-12.43 5.57-12.43 12.42v105.591h-7.78c-10.33 0-18.17 2.91-23.29 8.65-4.61 5.16-6.67 12.51-5.84 20.72v44.71c0 .24.01.48.04.72 1.207 12.58 4.346 18.412 10.149 23.682.305.326.638.624.997.892.025.022.049.044.074.066 1.92 1.63 4.12 3.26 6.6 5.05l.78.56c4.64 3.37 9.32 14.36 11.58 32.47-9.03 2.13-16.39 5.43-21.64 10.32-5.8 5.41-8.75 12.36-8.75 20.66v27.9c0 4.14 3.36 7.5 7.5 7.5h496.99c4.14 0 7.5-3.36 7.5-7.5v-20.48c0-9.4-4.84-17.9-14.39-25.27zm-253.45-395.75h26.44v23.148h-26.44zm0 38.148h26.44v39.631h-26.44zm-108.59-38.148h26.44v23.148h-26.44zm0 38.148h26.44v39.631h-26.44zm-83.48 103.942h146.11c4.14 0 7.5-3.36 7.5-7.5 0-4.15-3.36-7.5-7.5-7.5h-90.89-.003v-34.311h204.952c3.465 0 4.441 1.301 5.92 3.271.367.489 27.442 31.04 27.442 31.04h-110.151c-4.14 0-7.5 3.35-7.5 7.5 0 4.14 3.36 7.5 7.5 7.5 0 0 158.95.03 159.08.05.46.35 15.08 16.41 15.08 16.41l.001.001h-65.823c-4.143 0-7.5 3.357-7.5 7.5s3.357 7.5 7.5 7.5h79.543l11.399 12.469h-73.91c-9.73 0-17.17 1.98-24.15 11.84l-31.21 44.19c-2.4 3.4-2.4 3.4-8.2 3.16-1.51-.07-245.19-.11-245.19-.11v-103.01zm-33.191 188.879c-2.319-2.719-3.089-5.75-3.719-12.149v-16.38h205.63c4.15 0 7.5-3.36 7.5-7.5s-3.35-7.5-7.5-7.5h-205.63v-13.37c0-.29-.01-.57-.05-.85-.27-2.37-.36-6.75 2.08-9.48 2.68-3.01 8.06-3.64 12.1-3.64 0 0 265.92.03 267.35.09 7.18.3 13.96.59 21.07-9.49l31.21-44.18c3.27-4.62 5.17-5.5 11.9-5.5h129.72c.01.74.02 1.55.04 2.44.49 22.46-5.83 56.28-20.4 83.98h-214.75c-4.14 0-7.5 3.36-7.5 7.5s3.36 7.5 7.5 7.5h205.54c-5.41 7.55-11.63 14.23-18.68 19.53-4.03 3.03-7.509 6.019-10.539 8.999zm401.211 15c-4.391 7.871-6.291 15.741-7.01 23.841-51.72-5.91-115.1-2.75-167.17 10.85-29.69 7.76-73.96 4.63-116.77 1.62-31.91-2.25-61.26-4.33-83.93-2.05-1.56-12.52-4.61-25.31-10.34-34.26l-.001-.001zm76.89 88.031h-481.99v-20.4c0-4.08 1.27-7.16 3.98-9.69 2.91-2.71 7.21-4.73 12.61-6.2 4.31-1.18 9.33-2 14.9-2.55 21.79-2.14 52.02-.01 81.61 2.08 11.8.83 23.71 1.67 35.43 2.29 20.76 1.1 40.96 1.52 58.99 0 9.78-.81 18.93-2.2 27.19-4.36 53.79-14.05 114.96-16.08 163.08-10.3 5.19.62 10.22 1.34 15.08 2.13 27.28 4.49 48.98 11.67 60.56 20.62 5.68 4.38 8.56 8.89 8.56 13.4z"/><path d="m281.05 203.55h-194.08c-6.81 0-12.35 5.55-12.35 12.38v33.3c0 6.82 5.54 12.37 12.35 12.37h35.833c.016 0 .032.002.048.002s.032-.002.048-.002h40.665c.016 0 .032.002.048.002s.032-.002.048-.002h40.664c.016 0 .032.002.048.002s.032-.002.048-.002h40.665c.016 0 .032.002.048.002s.032-.002.048-.002h35.866c6.81 0 12.35-5.55 12.35-12.37v-33.3c.003-6.83-5.537-12.38-12.347-12.38zm-165.699 43.05h-25.731v-28.05h25.732v28.05zm40.762 0h-25.762v-28.05h25.762zm40.761 0h-25.761v-28.05h25.761zm40.762 0h-25.762v-28.05h25.762zm40.764 0h-25.764v-28.05h25.764z"/><path d="m382.02 306.67c5.8 0 11.6-2.21 16.01-6.62 4.29-4.28 6.64-9.97 6.64-16.03 0-3.02-.59-5.96-1.71-8.67-1.12-2.72-2.78-5.21-4.93-7.35-8.83-8.82-23.2-8.83-32.03 0-4.28 4.28-6.64 9.97-6.64 16.02 0 6.06 2.36 11.75 6.64 16.03 4.42 4.41 10.22 6.62 16.02 6.62zm-5.42-28.06c1.5-1.49 3.46-2.24 5.42-2.24s3.92.75 5.41 2.24c1.45 1.45 2.24 3.37 2.24 5.41 0 2.05-.79 3.97-2.24 5.42-2.98 2.98-7.84 2.98-10.83 0-1.44-1.45-2.24-3.37-2.24-5.42 0-2.04.8-3.97 2.24-5.41z"/><path d="m436.66 306.82h.03c6.05 0 11.74-2.35 16.02-6.63 4.29-4.28 6.64-9.97 6.64-16.02 0-6.06-2.35-11.75-6.64-16.03-4.28-4.28-9.97-6.63-16.02-6.63h-.03c-6.05 0-11.73 2.36-15.98 6.63-4.28 4.28-6.64 9.97-6.64 16.03 0 6.05 2.36 11.74 6.63 16.01 4.26 4.28 9.94 6.64 15.99 6.64zm-5.36-28.08c1.43-1.44 3.34-2.23 5.38-2.23h.01c2.05 0 3.97.79 5.42 2.24s2.24 3.37 2.24 5.42c0 2.04-.79 3.96-2.24 5.41s-3.37 2.24-5.42 2.24c-.01 0-.01 0-.01 0-2.04 0-3.95-.79-5.4-2.24-1.44-1.45-2.24-3.37-2.24-5.41 0-2.05.8-3.97 2.26-5.43z"/></g></g></svg>