<?xml version="1.0" encoding="utf-8"?>
<!-- Generator: Adobe Illustrator 23.1.0, SVG Export Plug-In . SVG Version: 6.00 Build 0)  -->
<svg version="1.1" id="Layer_1" xmlns="http://www.w3.org/2000/svg" xmlns:xlink="http://www.w3.org/1999/xlink" x="0px" y="0px"
	 viewBox="0 0 1125 2436" style="enable-background:new 0 0 1125 2436;" xml:space="preserve">
<g>
	<path d="M601.98,1022.12c2.64-3.01,5.2-5.48,7.15-8.37c0.82-1.21,0.72-3.36,0.4-4.96c-2.12-10.54,3.88-19.89,14.34-22.07
		c9.38-1.96,18.73,4.31,21.01,14.1c2.78,11.92-7.6,23.48-20.03,21.26c-5.22-0.93-7.96,0.64-10.88,4.07
		c-1.07,1.25-2.66,2.05-4.38,3.33c9.23,8.86,17.7,16.99,26.45,25.38c-9.81,11.7-21.29,17.53-35.71,17.38
		c-7.4-0.08-14.3-2.17-20.46-6.09c-2.97-1.89-4.74-1.64-6.93,0.85c-1.6,1.82-3.66,3.23-5.92,5.17c6.36,5.86,12.07,11.12,18.14,16.71
		c-6.66,6.09-12.38,11.31-18.7,17.09c3.98,3.32,6.87,5.72,10.13,8.44c4.68-5.06,9.95-10.74,14.92-16.11
		c17.8,17.79,34.73,34.72,51.52,51.5c-13.53,13.42-27.63,27.4-41.55,41.2c-16.49-16.5-33.36-33.37-50.81-50.82
		c5.39-4.89,11.23-10.19,17.41-15.79c-3.61-3.54-6.21-6.09-10.54-10.33c-1.46,2.34-2.44,4.75-4.12,6.46
		c-10.63,10.81-21.4,21.49-32.16,32.18c-10.51,10.44-22.85,12.63-36.17,6.25c-2.19-1.05-3.52-0.99-5.13,0.84
		c-3.3,3.78-6.79,7.4-10.49,11.39c-3.27-3.53-5.75-6.2-9.12-9.84c3.46-3.15,6.98-6.49,10.65-9.66c2.03-1.75,2.45-3.21,1.14-5.84
		c-6.26-12.52-4.02-25.35,5.99-35.33c12.47-12.42,25.04-24.76,38.2-37.75c-3.4-2.65-6.37-4.96-9.82-7.65
		c-4.49,4.91-9.72,10.63-14.69,16.06c-17.83-17.83-34.77-34.78-51.53-51.53c13.51-13.47,27.57-27.5,41.48-41.36
		c16.68,16.72,33.52,33.61,50.75,50.89c-5.24,4.79-10.98,10.02-16.74,15.28c3.58,3.48,6.25,6.08,9.23,8.97
		c4.95-5.32,10.23-11,15.76-16.93c6.16,6.59,11.44,12.24,17.16,18.37c3.42-3.39,6.08-5.66,8.19-8.35c0.62-0.8,0.04-3.05-0.66-4.25
		c-11.17-19.37-7.13-41.67,11.21-56.51c3.93,4.21,7.91,8.58,12.01,12.85C592.81,1012.9,597.04,1017.1,601.98,1022.12z
		 M500.72,1106.35c7.92,8.19,16.13,16.66,23.67,24.45c13.95-13.86,27.98-27.8,41.76-41.49c-7.94-7.99-16.21-16.33-24.02-24.19
		C528.13,1079.07,514.08,1093.05,500.72,1106.35z M617.1,1055.36c-13.71-13.75-27.27-27.35-40.81-40.93
		c-7.84,9.76-6.2,26.64,3.7,36.69C590.03,1061.3,606.71,1063.14,617.1,1055.36z M490.1,1115.93c-7.01,5.51-11.09,12.34-8.41,21.5
		c2,6.83,6.79,11.19,13.88,12.55c8.75,1.68,14.94-2.47,19.83-8.81C506.93,1132.72,498.64,1124.45,490.1,1115.93z M507.95,1046.55
		c2.4-2.49,4.98-5.19,7.12-7.42c-4.21-4.24-8.32-8.37-11.94-12.02c-2.44,2.22-5.12,4.66-7.89,7.17
		C499.44,1038.33,503.56,1042.31,507.95,1046.55z M498.51,1055.9c-4.2-4.32-8.21-8.45-12.28-12.64c-2.79,2.81-5.43,5.48-7.95,8.03
		c4.04,4.1,8.09,8.21,12.16,12.34C493.21,1060.96,495.93,1058.37,498.51,1055.9z M585.32,1122.98c4.37,4.64,8.28,8.8,12.09,12.85
		c2.7-2.54,5.35-5.04,7.37-6.94c-4.03-4.39-7.99-8.7-11.73-12.77C590.25,1118.6,587.54,1121.01,585.32,1122.98z M588.4,1145.35
		c-4.4-4.44-8.46-8.54-12.24-12.36c-2.91,2.64-5.71,5.19-8.16,7.42c4.24,4.48,8.21,8.67,12.29,12.98
		C583.01,1150.69,585.6,1148.12,588.4,1145.35z M626.51,1149.2c-3.93-3.89-8.03-7.95-12.35-12.22c-2.6,2.62-5.24,5.27-7.77,7.82
		c4.28,4.27,8.35,8.33,12.64,12.61C621.39,1154.82,623.82,1152.15,626.51,1149.2z M589,1161.96c4.4,4.35,8.5,8.41,12.8,12.65
		c2.62-2.62,5.26-5.27,7.32-7.33c-4.23-4.4-8.27-8.6-12.34-12.82C594.35,1156.8,591.83,1159.22,589,1161.96z M473.98,1012.33
		c4.38,4.55,8.36,8.69,12.12,12.59c2.82-2.5,5.62-4.99,8.03-7.13c-4.34-4.61-8.28-8.8-12.11-12.86
		C479.16,1007.57,476.48,1010.03,473.98,1012.33z M465.41,1022.68c-3.1,2.51-6.01,4.86-8.38,6.78c4.29,4.42,8.28,8.54,11.91,12.27
		c2.75-2.39,5.55-4.84,8.48-7.39C472.94,1029.99,468.91,1026.08,465.41,1022.68z M627.29,1010.39c3.52-0.39,5.64-2.27,5.91-5.79
		c0.23-3.1-2.96-6.17-6.08-6.16c-3.26,0.02-6.06,2.96-5.79,6.3C621.61,1008.33,623.8,1010.08,627.29,1010.39z"/>
</g>
</svg>
