<svg id="Layer_3" enable-background="new 0 0 64 64" height="512" viewBox="0 0 64 64" width="512" xmlns="http://www.w3.org/2000/svg"><g><path d="m6.23 21.361c-.19.229-.268.53-.213.823l3 16c.089.473.502.816.983.816h26c.481 0 .894-.343.983-.815l3-16c.055-.293-.023-.595-.213-.823s-.473-.362-.77-.362h-32c-.297 0-.58.133-.77.361zm17.77 7.639v-2h3v2zm3 2v2h-3v-2zm-5-2h-3v-2h3zm0 2v2h-3v-2zm-5 2h-3v-2h3zm0 2v2h-3v-2zm2 0h3v2h-3zm5 0h3v2h-3zm5 0h3v2h-3zm0-2v-2h3v2zm5-2h2.295l-.375 2h-1.92zm0-2v-2h3.045l-.375 2zm-2 0h-3v-2h3zm-3-4v-2h3v2zm-2 0h-3v-2h3zm-5 0h-3v-2h3zm-5 0h-3v-2h3zm0 2v2h-3v-2zm-5 2h-2.67l-.375-2h3.045zm0 2v2h-1.92l-.375-2zm-1.545 4h1.545v2h-1.17zm23.545 2v-2h1.545l-.375 2zm3.42-12h-3.42v-2h3.795zm-25.42-2v2h-3.42l-.375-2z"/><path d="m60 5h-7c-1.103 0-2 .897-2 2h-5c-.477 0-.887.337-.98.804l-1.84 9.196h-10.382c.788-1.537 1.202-3.235 1.202-5 0-6.065-4.935-11-11-11s-11 4.935-11 11c0 1.765.414 3.463 1.202 5h-11.202c-.294 0-.573.129-.763.354s-.271.521-.223.811l4 24c.08.481.497.835.986.835h34 2c.551 0 1 .448 1 1s-.449 1-1 1h-36c-.552 0-1 .447-1 1v4c0 .553.448 1 1 1h1.382l1.544 3.087c-1.164.916-1.926 2.321-1.926 3.913 0 2.757 2.243 5 5 5s5-2.243 5-5c0-1.592-.762-2.997-1.925-3.913l1.543-3.087h12.764l1.544 3.087c-1.164.916-1.926 2.321-1.926 3.913 0 2.757 2.243 5 5 5s5-2.243 5-5c0-1.592-.762-2.997-1.925-3.913l1.543-3.087h1.382c.552 0 1-.447 1-1v-3h1c1.654 0 3-1.346 3-3s-1.346-3-3-3h-.82l3.803-22.818 1.837-9.182h4.18c0 1.103.897 2 2 2h7c1.654 0 3-1.346 3-3s-1.346-3-3-3zm-48 56c-1.654 0-3-1.346-3-3s1.346-3 3-3 3 1.346 3 3-1.346 3-3 3zm1.287-7.811c-.413-.111-.839-.189-1.287-.189s-.874.078-1.287.189l-1.095-2.189h4.764zm20.713 7.811c-1.654 0-3-1.346-3-3s1.346-3 3-3 3 1.346 3 3-1.346 3-3 3zm1.287-7.811c-.413-.111-.839-.189-1.287-.189s-.874.078-1.287.189l-1.095-2.189h4.764zm3.713-4.189h-32v-2h32zm-25-37c0-4.963 4.038-9 9-9s9 4.037 9 9c0 1.803-.529 3.519-1.523 5h-3.033c.344-.591.556-1.268.556-2 0-2.206-1.794-4-4-4v-4c1.103 0 2 .897 2 2h2c0-2.206-1.794-4-4-4v-1h-2v1c-2.206 0-4 1.794-4 4s1.794 4 4 4v4c-1.103 0-2-.897-2-2h-2c0 .732.212 1.409.556 2h-3.033c-.994-1.481-1.523-3.198-1.523-5zm8-1c-1.103 0-2-.897-2-2s.897-2 2-2zm2 2c1.103 0 2 .897 2 2s-.897 2-2 2zm15.153 28h-32.306l-3.666-22h18.819 2 18.819zm20.847-32h-7v-2h7c.551 0 1 .448 1 1s-.449 1-1 1z"/><circle cx="12" cy="58" r="2"/><circle cx="34" cy="58" r="2"/></g></svg>